<mxfile host="app.diagrams.net" modified="2024-02-26T10:58:46.920Z" agent="Mozilla/5.0 (Macintosh; Intel Mac OS X 10_15_7) AppleWebKit/537.36 (KHTML, like Gecko) Chrome/121.0.0.0 Safari/537.36" version="23.1.5" etag="f-KyZU0S_-SVDUEoQaH2" type="github">
  <diagram name="第 1 页" id="ZaE79El6u2kcZi522Cqt">
    <mxGraphModel>
      <root>
        <mxCell id="0" />
        <mxCell id="1" parent="0" />
      </root>
    </mxGraphModel>
  </diagram>
</mxfile>
